<svg width="260" height="110" xmlns="http://www.w3.org/2000/svg">

 <g>
  <title>background</title>
  <rect fill="none" id="canvas_background" height="112" width="262" y="-1" x="-1"/>
 </g>
 <g>
  <title>Layer 1</title>
  <path fill-rule="evenodd" fill="#ca5f5f" d="m18.7281,9.89996c-1.945,1.049 -4.026,3.113 -5.027,4.987l-0.906,1.696l0,37.8l0,37.8l1.148,2.072c1.183,2.135 3.419,4.231 5.257,4.93c0.669,0.254 15.128,0.398 40.021,0.398l38.974,0l0,-39.819l0,-39.819l-2.5,0.119l-2.5,0.119l-0.102,37.5l-0.102,37.5l-35.072,0c-34.654,0 -35.092,-0.01 -36.783,-0.828c-4.203,-2.035 -4.557,-7.969 -0.634,-10.631c1.039,-0.704 2.712,-0.747 33.593,-0.852l32.5,-0.112l0,-36.788l0,-36.789l-33.3,0.017c-30.622,0.015 -33.402,0.071 -34.567,0.7m154.594,11.897c-1.982,1.077 -1.94,3.345 0.081,4.39c1.62,0.838 2.514,0.745 3.734,-0.385c2.589,-2.4 -0.601,-5.749 -3.815,-4.005m-42.127,8.967c-8.04,3.189 -7.454,15.437 0.854,17.852c3.606,1.048 10.146,-0.327 10.146,-2.133c0,-1.514 -1.254,-2.983 -2.331,-2.731c-4.659,1.09 -7.705,0.568 -9.1,-1.56c-1.085,-1.657 -0.542,-1.809 6.455,-1.809l6.576,0l0,-1.136c0,-6.672 -6.363,-10.956 -12.6,-8.483m22.2,0.051c-10.724,4.855 -4.393,21.486 6.768,17.779c3.054,-1.015 6.486,-4.454 5.366,-5.379c-1.356,-1.119 -4.276,-1.246 -5.334,-0.232c-3.988,3.82 -9.715,-1.327 -6.798,-6.11c1.317,-2.16 5.313,-2.796 7.146,-1.137c0.496,0.449 1.47,0.647 3.183,0.647l2.469,0l0,-2.4l0,-2.4l-1.5,0c-0.825,0 -2.447,-0.36 -3.604,-0.8c-2.675,-1.017 -5.404,-1.005 -7.696,0.032m40.6,-0.432c-0.44,0.189 -3.095,0.356 -5.9,0.372l-5.1,0.028l0,1.976l0,1.976l1.5,0.124l1.5,0.124l0,9.4l0,9.4l-1.5,0.124l-1.5,0.124l0,1.976l0,1.976l5.6,0l5.6,0l0,-1.976l0,-1.976l-1.5,-0.124l-1.5,-0.124l-0.122,-2.358c-0.151,-2.934 0.106,-3.204 2.457,-2.575c6.779,1.813 13.061,-4.49 11.487,-11.526c-1.074,-4.796 -7.133,-8.612 -11.022,-6.941m19.6,0.381c-8.04,3.189 -7.454,15.437 0.854,17.852c3.606,1.048 10.146,-0.327 10.146,-2.133c0,-1.514 -1.254,-2.983 -2.331,-2.731c-4.659,1.09 -7.705,0.568 -9.1,-1.56c-1.085,-1.657 -0.542,-1.809 6.455,-1.809l6.576,0l0,-1.136c0,-6.672 -6.363,-10.956 -12.6,-8.483m-108.2,1.995l0,1.976l1.5,0.124l1.5,0.124l0,5l0,5l-1.5,0.124l-1.5,0.124l0,1.976l0,1.976l5.6,0l5.6,0l0,-1.976l0,-1.976l-1.5,-0.124c-0.5,-0.04134 -1,-0.08267 -1.5,-0.124l-0.115,-3.703c-0.108,-3.489 -0.058,-3.761 0.882,-4.7c1.214,-1.214 2.626,-1.309 2.917,-0.197c0.179,0.686 0.546,0.8 2.563,0.8l2.353,0l0,-3.2l0,-3.2l-2.654,0c-1.459,0 -3.355,0.21 -4.212,0.467c-1.189,0.356 -1.671,0.356 -2.027,0c-0.289,-0.289 -1.884,-0.467 -4.187,-0.467l-3.72,0l0,1.976m63.2,0l0,1.976l1.5,0.124l1.5,0.124l0,5l0,5l-1.5,0.124l-1.5,0.124l0,1.976l0,1.976l5.6,0l5.6,0l0,-1.976l0,-1.976l-1.5,-0.124l-1.5,-0.124l-0.109,-7.1l-0.109,-7.1l-3.991,0l-3.991,0l0,1.976m-139.68,2.504c0.264,0.264 0.48,1.404 0.48,2.532c0,2.255 0.574,2.843 3,3.074c1.19,0.113 1.201,0.136 1.318,2.814l0.119,2.7l-2.219,0c-2.523,0 -2.766,0.327 -0.909,1.223c3.512,1.695 2.895,9.177 -0.756,9.177c-0.385,0 -0.553,0.523 -0.553,1.72c0,2.186 -0.517,2.68 -2.8,2.68c-2.259,0 -2.797,-0.494 -2.81,-2.58c-0.012,-1.787 -1.192,-2.627 -4.49,-3.197l-1.5,-0.259l0,-2.335c0,-2.625 0.232,-2.813 3.484,-2.824c1.308,-0.004 1.901,0.23 2.658,1.046c1.029,1.109 3.821,1.585 4.132,0.704c0.167,-0.475 -0.735,-0.879 -4.318,-1.934c-5.568,-1.639 -6.345,-8.643 -1.075,-9.697c1.052,-0.211 1.119,-0.347 1.119,-2.294c0,-1.138 0.216,-2.286 0.48,-2.55c0.622,-0.622 4.018,-0.622 4.64,0m108.899,0.255c1.466,1.187 0.66,1.665 -2.81,1.665c-4.481,0 -5.534,-0.564 -3.309,-1.771c1.592,-0.864 4.994,-0.805 6.119,0.106m60.108,-0.089c4.685,2.234 2.697,8.954 -2.648,8.954c-2.873,0 -4.079,-1.42 -4.079,-4.8c0,-4.267 2.829,-6.013 6.727,-4.154m22.292,0.089c1.466,1.187 0.66,1.665 -2.81,1.665c-4.481,0 -5.534,-0.564 -3.309,-1.771c1.592,-0.864 4.994,-0.805 6.119,0.106m-167.354,0.967c3.876,2.091 4.823,7.449 1.891,10.694c-1.134,1.255 -1.266,1.581 -0.797,1.97c0.309,0.257 0.798,1.263 1.085,2.237c0.421,1.427 0.739,1.818 1.639,2.015c1.561,0.343 1.746,4.72 0.217,5.13c-3.651,0.978 -7.1,0.007 -7.1,-1.999c0,-3.543 -1.492,-5.749 -3.889,-5.749c-1.19,0 -1.311,0.111 -1.311,1.2c0,0.889 0.187,1.2 0.72,1.2c1.173,0 1.68,0.845 1.68,2.8c0,2.629 -0.317,2.8 -5.2,2.8c-4.883,0 -5.2,-0.171 -5.2,-2.8c0,-1.955 0.507,-2.8 1.68,-2.8c0.661,0 0.72,-0.489 0.72,-6c0,-5.511 -0.059,-6 -0.72,-6c-1.576,0 -2.457,-3.845 -1.18,-5.151c0.81,-0.829 14.097,-0.447 15.765,0.453m22.4,0c3.876,2.091 4.823,7.449 1.891,10.694c-1.134,1.255 -1.266,1.581 -0.797,1.97c0.309,0.257 0.798,1.263 1.085,2.237c0.421,1.427 0.739,1.818 1.639,2.015c1.561,0.343 1.746,4.72 0.217,5.13c-3.651,0.978 -7.1,0.007 -7.1,-1.999c0,-3.543 -1.492,-5.749 -3.889,-5.749c-1.19,0 -1.311,0.111 -1.311,1.2c0,0.889 0.187,1.2 0.72,1.2c1.173,0 1.68,0.845 1.68,2.8c0,2.629 -0.317,2.8 -5.2,2.8c-4.883,0 -5.2,-0.171 -5.2,-2.8c0,-1.955 0.507,-2.8 1.68,-2.8c0.661,0 0.72,-0.489 0.72,-6c0,-5.511 -0.059,-6 -0.72,-6c-1.576,0 -2.457,-3.845 -1.18,-5.151c0.81,-0.829 14.097,-0.447 15.765,0.453m-30.665,6.698l0,2l2.1,-0.006c2.675,-0.007 4.1,-0.7 4.1,-1.994c0,-1.294 -1.425,-1.987 -4.1,-1.994l-2.1,-0.006l0,2m22.4,0l0,2l2.1,-0.006c2.675,-0.007 4.1,-0.7 4.1,-1.994c0,-1.294 -1.425,-1.987 -4.1,-1.994l-2.1,-0.006l0,2m-42.8,1.736c0,0.616 3.053,1.745 3.502,1.294c0.453,-0.454 -1.461,-1.83 -2.546,-1.83c-0.532,0 -0.956,0.238 -0.956,0.536m139,22.354c-0.66,0.235 -1.555,0.671 -1.989,0.968c-1.048,0.72 -2.211,0.689 -2.211,-0.058c0,-0.493 -0.711,-0.6 -4,-0.6l-4,0l0,1.976l0,1.976l1.5,0.124l1.5,0.124l0,5l0,5l-1.5,0.124l-1.5,0.124l0,1.976l0,1.976l5.6,0l5.6,0l0,-1.976l0,-1.976l-1.5,-0.124l-1.5,-0.124l-0.115,-3.698c-0.13,-4.196 0.129,-4.933 2.062,-5.85c2.18,-1.034 4.115,-0.852 5.484,0.517l1.169,1.169l0,6.031l0,6.031l4,0l4,0l0,-1.976l0,-1.976l-1.5,-0.124l-1.5,-0.124l-0.202,-5.2c-0.315,-8.137 -3.586,-11.377 -9.398,-9.31m27.2,0c-0.66,0.235 -1.555,0.671 -1.989,0.968c-1.048,0.72 -2.211,0.689 -2.211,-0.058c0,-0.493 -0.711,-0.6 -4,-0.6l-4,0l0,1.976l0,1.976l1.5,0.124l1.5,0.124l0,5l0,5l-1.5,0.124l-1.5,0.124l0,1.976l0,1.976l5.6,0l5.6,0l0,-1.976l0,-1.976l-1.5,-0.124l-1.5,-0.124l-0.115,-3.698c-0.13,-4.196 0.129,-4.933 2.062,-5.85c2.18,-1.034 4.115,-0.852 5.484,0.517l1.169,1.169l0,6.031l0,6.031l4,0l4,0l0,-1.976l0,-1.976l-1.5,-0.124l-1.5,-0.124l-0.202,-5.2c-0.315,-8.137 -3.586,-11.377 -9.398,-9.31m20.8,0.291c-8.04,3.189 -7.454,15.437 0.854,17.852c3.606,1.048 10.146,-0.327 10.146,-2.133c0,-1.514 -1.254,-2.983 -2.331,-2.731c-4.659,1.09 -7.705,0.568 -9.1,-1.56c-1.085,-1.657 -0.542,-1.809 6.455,-1.809l6.576,0l0,-1.136c0,-6.672 -6.363,-10.956 -12.6,-8.483m-105.8,1.995l0,1.976l1.5,0.124l1.5,0.124l0,5l0,5l-1.5,0.124l-1.5,0.124l0,1.976l0,1.976l5.6,0l5.6,0l0,-1.976l0,-1.976l-1.5,-0.124l-1.5,-0.124l-0.115,-3.703c-0.108,-3.489 -0.058,-3.761 0.882,-4.7c1.214,-1.214 2.626,-1.309 2.917,-0.197c0.179,0.686 0.546,0.8 2.563,0.8l2.353,0l0,-3.2l0,-3.2l-2.654,0c-1.459,0 -3.355,0.21 -4.212,0.467c-1.189,0.356 -1.671,0.356 -2.027,0c-0.289,-0.289 -1.884,-0.467 -4.187,-0.467l-3.72,0l0,1.976m19.2,0l0,1.976l1.5,0.124l1.5,0.124l0.221,4.6c0.391,8.108 4.228,11.311 10.779,9c0.935,-0.33 1.858,-0.6 2.05,-0.6c0.193,0 0.35,0.27 0.35,0.6c0,0.491 0.689,0.6 3.8,0.6l3.8,0l0,-1.976l0,-1.976l-1.5,-0.124l-1.5,-0.124l-0.109,-7.1l-0.109,-7.1l-3.991,0l-3.991,0l0,1.976l0,1.976l1.5,0.124l1.5,0.124l0.114,3.652l0.115,3.653l-1.245,1.047c-1.78,1.498 -4.044,1.449 -5.615,-0.121l-1.169,-1.169l0,-5.631l0,-5.631l-4,0l-4,0l0,1.976m102.4,0l0,1.976l1.5,0.124l1.5,0.124l0,5l0,5l-1.5,0.124l-1.5,0.124l0,1.976l0,1.976l5.6,0l5.6,0l0,-1.976l0,-1.976l-1.5,-0.124l-1.5,-0.124l-0.115,-3.703c-0.108,-3.489 -0.058,-3.761 0.882,-4.7c1.214,-1.214 2.626,-1.309 2.917,-0.197c0.179,0.686 0.546,0.8 2.563,0.8l2.353,0l0,-3.2l0,-3.2l-2.654,0c-1.459,0 -3.355,0.21 -4.212,0.467c-1.189,0.356 -1.671,0.356 -2.027,0c-0.289,-0.289 -1.884,-0.467 -4.187,-0.467l-3.72,0l0,1.976m-9.181,2.759c1.466,1.187 0.66,1.665 -2.81,1.665c-4.481,0 -5.534,-0.564 -3.309,-1.771c1.592,-0.864 4.994,-0.805 6.119,0.106" id="path1"/>
  <path fill-rule="evenodd" fill="#edacac" d="m16.9261,10.48396c-2.333,1.734 -3.35,3.06 -4.22,5.499c-1.005,2.819 -0.705,75.596 0.321,77.778c0.987,2.1 2.568,3.833 4.757,5.215l1.595,1.007l39.61,0l39.61,0l-0.102,-40.1l-0.102,-40.1l-2.564,-0.121c-1.78,-0.084 -2.664,0.039 -2.893,0.4c-0.182,0.287 -0.334,17.126 -0.337,37.421l-0.006,36.9l-35.587,0l-35.586,0l-1.394,-1.394c-3.199,-3.199 -1.937,-8.192 2.367,-9.365c1.092,-0.298 11.669,-0.437 33.3,-0.439l31.7,-0.002l0,-37.2l0,-37.2l-34.1,0.007l-34.1,0.007l-2.269,1.687m69.669,35.488l0,36.788l-32.5,0.112c-30.881,0.105 -32.554,0.148 -33.593,0.852c-3.923,2.662 -3.569,8.596 0.634,10.631c1.691,0.818 2.129,0.828 36.783,0.828l35.072,0l0.102,-37.5l0.102,-37.5l2.5,-0.119l2.5,-0.119l0,39.819l0,39.819l-38.974,0c-24.893,0 -39.352,-0.144 -40.021,-0.398c-1.838,-0.699 -4.074,-2.795 -5.257,-4.93l-1.148,-2.072l0,-37.8l0,-37.8l0.906,-1.696c1.001,-1.874 3.082,-3.938 5.027,-4.987c1.165,-0.629 3.945,-0.685 34.567,-0.7l33.3,-0.017l0,36.789m-62.32,-10.709c-0.264,0.264 -0.48,1.412 -0.48,2.55c0,1.947 -0.067,2.083 -1.119,2.294c-5.27,1.054 -4.493,8.058 1.075,9.697c3.583,1.055 4.485,1.459 4.318,1.934c-0.311,0.881 -3.103,0.405 -4.132,-0.704c-0.757,-0.816 -1.35,-1.05 -2.658,-1.046c-3.252,0.011 -3.484,0.199 -3.484,2.824l0,2.335l1.5,0.259c3.298,0.57 4.478,1.41 4.49,3.197c0.013,2.086 0.551,2.58 2.81,2.58c2.283,0 2.8,-0.494 2.8,-2.68c0,-1.197 0.168,-1.72 0.553,-1.72c3.651,0 4.268,-7.482 0.756,-9.177c-1.857,-0.896 -1.614,-1.223 0.909,-1.223l2.219,0l-0.119,-2.7c-0.117,-2.678 -0.128,-2.701 -1.318,-2.814c-2.426,-0.231 -3,-0.819 -3,-3.074c0,-1.128 -0.216,-2.268 -0.48,-2.532c-0.622,-0.622 -4.018,-0.622 -4.64,0m4.637,2.52c0.132,2.69 0.986,3.775 2.983,3.791c1.066,0.009 1.1,0.078 1.1,2.209l0,2.2l-2.242,0c-1.928,0 -2.356,-0.143 -3.046,-1.021c-1.05,-1.335 -4.112,-1.32 -4.112,0.021c0,0.651 0.669,1.025 3.6,2.008c6.319,2.121 7.567,5.291 3.402,8.638c-1.355,1.089 -1.578,1.502 -1.682,3.105l-0.12,1.849l-2.2,0l-2.2,0l-0.2,-1.967c-0.222,-2.179 -2.117,-3.778 -4.521,-3.816c-1.099,-0.017 -1.118,-0.058 -1,-2.117l0.121,-2.1l1.918,-0.123c1.702,-0.108 2.048,0.016 3.061,1.1c0.956,1.023 1.444,1.223 2.994,1.223c3.255,0 2.925,-1.91 -0.481,-2.788c-4.34,-1.12 -5.463,-1.81 -6.348,-3.901c-0.852,-2.013 0.176,-4.197 2.488,-5.284c1.766,-0.83 1.768,-0.834 1.768,-2.962c0,-2.633 0.095,-2.729 2.585,-2.583l2.015,0.118l0.117,2.4m8.183,-1.751c-1.277,1.306 -0.396,5.151 1.18,5.151c0.661,0 0.72,0.489 0.72,6c0,5.511 -0.059,6 -0.72,6c-1.173,0 -1.68,0.845 -1.68,2.8c0,2.629 0.317,2.8 5.2,2.8c4.883,0 5.2,-0.171 5.2,-2.8c0,-1.955 -0.507,-2.8 -1.68,-2.8c-0.533,0 -0.72,-0.311 -0.72,-1.2c0,-1.089 0.121,-1.2 1.311,-1.2c2.397,0 3.889,2.206 3.889,5.749c0,2.006 3.449,2.977 7.1,1.999c1.529,-0.41 1.344,-4.787 -0.217,-5.13c-0.9,-0.197 -1.218,-0.588 -1.639,-2.015c-0.287,-0.974 -0.776,-1.98 -1.085,-2.237c-0.469,-0.389 -0.337,-0.715 0.797,-1.97c2.932,-3.245 1.985,-8.603 -1.891,-10.694c-1.668,-0.9 -14.955,-1.282 -15.765,-0.453m22.4,0c-1.277,1.306 -0.396,5.151 1.18,5.151c0.661,0 0.72,0.489 0.72,6c0,5.511 -0.059,6 -0.72,6c-1.173,0 -1.68,0.845 -1.68,2.8c0,2.629 0.317,2.8 5.2,2.8c4.883,0 5.2,-0.171 5.2,-2.8c0,-1.955 -0.507,-2.8 -1.68,-2.8c-0.533,0 -0.72,-0.311 -0.72,-1.2c0,-1.089 0.121,-1.2 1.311,-1.2c2.397,0 3.889,2.206 3.889,5.749c0,2.006 3.449,2.977 7.1,1.999c1.529,-0.41 1.344,-4.787 -0.217,-5.13c-0.9,-0.197 -1.218,-0.588 -1.639,-2.015c-0.287,-0.974 -0.776,-1.98 -1.085,-2.237c-0.469,-0.389 -0.337,-0.715 0.797,-1.97c2.932,-3.245 1.985,-8.603 -1.891,-10.694c-1.668,-0.9 -14.955,-1.282 -15.765,-0.453m-7.123,0.978c4.033,2.116 4.824,7.309 1.551,10.183l-1.374,1.206l0.8,1.017c0.44,0.559 1.008,1.647 1.262,2.417c0.287,0.867 0.836,1.542 1.444,1.773c0.895,0.34 0.971,0.559 0.861,2.475l-0.121,2.102l-2.974,0l-2.975,0l-0.683,-3.121c-0.865,-3.955 -1.488,-4.679 -4.03,-4.679l-1.938,0l0,1.573c0,1.42 0.108,1.586 1.1,1.7c1.051,0.121 1.1,0.224 1.1,2.327l0,2.2l-4.6,0l-4.6,0l0,-2.2c0,-2.103 0.049,-2.206 1.1,-2.327l1.1,-0.126l0,-6.347l0,-6.347l-1.1,-0.126c-1.125,-0.13 -1.766,-2.535 -1.122,-4.213c0.39,-1.016 13.102,-0.587 15.199,0.513m22.4,0c4.033,2.116 4.824,7.309 1.551,10.183l-1.374,1.206l0.8,1.017c0.44,0.559 1.008,1.647 1.262,2.417c0.287,0.867 0.836,1.542 1.444,1.773c0.895,0.34 0.971,0.559 0.861,2.475l-0.121,2.102l-2.974,0l-2.975,0l-0.683,-3.121c-0.865,-3.955 -1.488,-4.679 -4.03,-4.679l-1.938,0l0,1.573c0,1.42 0.108,1.586 1.1,1.7c1.051,0.121 1.1,0.224 1.1,2.327l0,2.2l-4.6,0l-4.6,0l0,-2.2c0,-2.103 0.049,-2.206 1.1,-2.327l1.1,-0.126l0,-6.347l0,-6.347l-1.1,-0.126c-1.125,-0.13 -1.766,-2.535 -1.122,-4.213c0.39,-1.016 13.102,-0.587 15.199,0.513m-30.577,6.173l0,2.4l2.711,0c3.232,0 4.489,-0.672 4.489,-2.4c0,-1.728 -1.257,-2.4 -4.489,-2.4l-2.711,0l0,2.4m22.4,0l0,2.4l2.711,0c3.232,0 4.489,-0.672 4.489,-2.4c0,-1.728 -1.257,-2.4 -4.489,-2.4l-2.711,0l0,2.4m-16.8,-1.482c2.56,1.295 0.624,3.466 -3.1,3.476l-2.1,0.006l0,-2l0,-2l2.1,0.006c1.155,0.003 2.55,0.233 3.1,0.512m22.4,0c2.56,1.295 0.624,3.466 -3.1,3.476l-2.1,0.006l0,-2l0,-2l2.1,0.006c1.155,0.003 2.55,0.233 3.1,0.512m-45.144,3.448c0.519,0.421 0.81,0.9 0.646,1.064c-0.449,0.451 -3.502,-0.678 -3.502,-1.294c0,-0.794 1.769,-0.652 2.856,0.23" id="path2"/>
  <path fill-rule="evenodd" fill="#c5a4a4" d="m173.195098,21.265956c-1.921,1.102 -2.361,3.164 -0.989,4.637c1.53,1.642 4.048,1.642 5.578,0c2.45,-2.63 -1.365,-6.486 -4.589,-4.637m3.942,0.898c2.573,2.385 -0.499,5.696 -3.734,4.023c-2.021,-1.045 -2.063,-3.313 -0.081,-4.39c1.558,-0.845 2.616,-0.744 3.815,0.367m-45.742,7.942c-8.396,2.646 -8.182,16.475 0.294,18.977c5.885,1.737 12.026,-0.931 10.337,-4.492c-0.801,-1.686 -1.2,-1.821 -3.431,-1.154c-3.199,0.955 -6.138,0.4 -7.465,-1.411c-0.823,-1.124 -0.199,-1.243 6.489,-1.243l6.576,0l-0.006,-1.7c-0.024,-6.752 -6.17,-11.065 -12.794,-8.977m21.691,0.324c-9.587,4.768 -6.047,19.738 4.509,19.062c4.412,-0.282 10.555,-5.053 8.489,-6.594c-1.646,-1.227 -4.664,-1.407 -5.919,-0.352c-2.345,1.974 -4.947,1.677 -6.416,-0.731c-2.476,-4.061 2.253,-8.476 6.246,-5.832c0.898,0.595 1.879,0.795 3.9,0.797l2.7,0.003l0,-2.8l0,-2.8l-1.739,0c-0.956,0 -2.351,-0.31 -3.1,-0.689c-2.13,-1.079 -6.563,-1.111 -8.67,-0.064m40.709,-0.447c-0.33,0.213 -2.985,0.391 -5.9,0.394l-5.3,0.006l0,2.4l0,2.4l1.6,0l1.6,0l0,9.2l0,9.2l-1.6,0l-1.6,0l0,2.4l0,2.4l6,0l6,0l0,-2.4l0,-2.4l-1.62,0l-1.62,0l0.12,-2.3c0.094,-1.81 0.248,-2.267 0.72,-2.145c8.957,2.32 16.276,-5.574 12.652,-13.644c-1.928,-4.292 -8.143,-7.391 -11.052,-5.511m20,0.123c-8.396,2.646 -8.182,16.475 0.294,18.977c5.885,1.737 12.026,-0.931 10.337,-4.492c-0.801,-1.686 -1.2,-1.821 -3.431,-1.154c-3.199,0.955 -6.138,0.4 -7.465,-1.411c-0.823,-1.124 -0.199,-1.243 6.489,-1.243l6.576,0l-0.006,-1.7c-0.024,-6.752 -6.17,-11.065 -12.794,-8.977m-74.505,1.024c2.552,1.301 4.505,4.821 4.505,8.117l0,1.136l-6.576,0c-6.997,0 -7.54,0.152 -6.455,1.809c1.395,2.128 4.441,2.65 9.1,1.56c0.904,-0.212 1.165,-0.063 1.7,0.97c0.95,1.837 0.8,2.219 -1.258,3.219c-8.475,4.118 -17.227,-3.019 -14.286,-11.649c1.819,-5.339 8.12,-7.79 13.27,-5.162m21.801,-0.347c1.157,0.44 2.779,0.8 3.604,0.8l1.5,0l0,2.4l0,2.4l-2.469,0c-1.713,0 -2.687,-0.198 -3.183,-0.647c-1.833,-1.659 -5.829,-1.023 -7.146,1.137c-2.917,4.783 2.81,9.93 6.798,6.11c1.032,-0.989 1.154,-1.01 3.038,-0.537c2.581,0.649 2.742,0.829 2.01,2.243c-2.793,5.403 -11.905,5.844 -15.412,0.747c-5.736,-8.338 1.861,-18.225 11.26,-14.653m37.425,-0.328c2.861,0.721 5.826,3.853 6.501,6.869c1.574,7.036 -4.708,13.339 -11.487,11.526c-2.351,-0.629 -2.608,-0.359 -2.457,2.575l0.122,2.358l1.5,0.124l1.5,0.124l0,1.976l0,1.976l-5.6,0l-5.6,0l0,-1.976l0,-1.976l1.5,-0.124l1.5,-0.124l0,-9.4l0,-9.4l-1.5,-0.124l-1.5,-0.124l0,-1.976l0,-1.976l5.1,-0.028c2.805,-0.016 5.46,-0.183 5.9,-0.372c1.138,-0.489 2.37,-0.469 4.521,0.072m23.174,0.675c2.552,1.301 4.505,4.821 4.505,8.117l0,1.136l-6.576,0c-6.997,0 -7.54,0.152 -6.455,1.809c1.395,2.128 4.441,2.65 9.1,1.56c0.904,-0.212 1.165,-0.063 1.7,0.97c0.95,1.837 0.8,2.219 -1.258,3.219c-8.475,4.118 -17.227,-3.019 -14.286,-11.649c1.819,-5.339 8.12,-7.79 13.27,-5.162m-116.695,1.653l0,2.4l1.6,0l1.6,0l0,4.8l0,4.8l-1.6,0l-1.6,0l0,2.4l0,2.4l6,0l6,0l0,-2.4l0,-2.4l-1.6,0l-1.6,0l0,-3.53c0,-3.229 0.084,-3.609 0.98,-4.451c1.036,-0.974 2.22,-0.884 2.22,0.168c0,0.492 0.552,0.613 2.8,0.613l2.8,0l0,-3.6l0,-3.6l-3.181,0c-1.75,0 -3.645,0.211 -4.211,0.469c-0.788,0.359 -1.14,0.359 -1.499,0c-0.298,-0.298 -1.971,-0.469 -4.589,-0.469l-4.12,0l0,2.4m63.2,0l0,2.4l1.6,0l1.6,0l0,4.8l0,4.8l-1.6,0l-1.6,0l0,2.4l0,2.4l6,0l6,0l0,-2.4l0,-2.4l-1.6,0l-1.6,0l0,-7.2l0,-7.2l-4.4,0l-4.4,0l0,2.4m-54.893,-1.533c0.356,0.356 0.838,0.356 2.027,0c0.857,-0.257 2.753,-0.467 4.212,-0.467l2.654,0l0,3.2l0,3.2l-2.353,0c-2.017,0 -2.384,-0.114 -2.563,-0.8c-0.291,-1.112 -1.703,-1.017 -2.917,0.197c-0.94,0.939 -0.99,1.211 -0.882,4.7l0.115,3.703l1.5,0.124l1.5,0.124l0,1.976l0,1.976l-5.6,0l-5.6,0l0,-1.976l0,-1.976l1.5,-0.124l1.5,-0.124l0,-5l0,-5l-1.5,-0.124l-1.5,-0.124l0,-1.976l0,-1.976l3.72,0c2.303,0 3.898,0.178 4.187,0.467m63.384,6.633l0.109,7.1l1.5,0.124l1.5,0.124l0,1.976l0,1.976l-5.6,0l-5.6,0l0,-1.976l0,-1.976l1.5,-0.124l1.5,-0.124l0,-5l0,-5l-1.5,-0.124l-1.5,-0.124l0,-1.976l0,-1.976l3.991,0l3.991,0l0.109,7.1m-44.991,-2.471c-2.225,1.207 -1.172,1.771 3.309,1.771c3.47,0 4.276,-0.478 2.81,-1.665c-1.125,-0.911 -4.527,-0.97 -6.119,-0.106m60.859,0.287c-1.341,0.904 -1.359,0.955 -1.359,3.884c0,5.187 5.26,6.755 8.565,2.554c3.218,-4.091 -2.761,-9.433 -7.206,-6.438m21.541,-0.287c-2.225,1.207 -1.172,1.771 3.309,1.771c3.47,0 4.276,-0.478 2.81,-1.665c-1.125,-0.911 -4.527,-0.97 -6.119,-0.106m-76.6,0.328c1.187,0.901 0.818,1.043 -2.7,1.043c-1.87,0 -3.4,-0.152 -3.4,-0.339c0,-1.119 4.821,-1.675 6.1,-0.704m60.313,0.05c4.117,2.129 2.326,8.193 -2.419,8.193c-2.894,0 -4.063,-1.338 -3.913,-4.477c0.176,-3.693 3.081,-5.398 6.332,-3.716m22.087,-0.05c1.187,0.901 0.818,1.043 -2.7,1.043c-1.87,0 -3.4,-0.152 -3.4,-0.339c0,-1.119 4.821,-1.675 6.1,-0.704m-58.227,31.653c-2.266,1.164 -2.273,1.165 -2.273,0.39c0,-0.497 -0.756,-0.6 -4.4,-0.6l-4.4,0l0,2.4l0,2.4l1.6,0l1.6,0l0,4.8l0,4.8l-1.6,0l-1.6,0l0,2.4l0,2.4l6,0l6,0l0,-2.4l0,-2.4l-1.614,0l-1.615,0l0.115,-3.885l0.114,-3.886l1.359,-0.914c1.489,-1.002 3.211,-1.172 4.567,-0.45c1.716,0.914 1.848,1.471 1.861,7.835l0.013,6.1l4.4,0l4.4,0l0,-2.4l0,-2.4l-1.6,0l-1.6,0l0,-4.781c0,-8.948 -4.671,-12.828 -11.327,-9.409m27.2,0c-2.266,1.164 -2.273,1.165 -2.273,0.39c0,-0.497 -0.756,-0.6 -4.4,-0.6l-4.4,0l0,2.4l0,2.4l1.6,0l1.6,0l0,4.8l0,4.8l-1.6,0l-1.6,0l0,2.4l0,2.4l6,0l6,0l0,-2.4l0,-2.4l-1.614,0l-1.615,0l0.115,-3.885l0.114,-3.886l1.359,-0.914c1.489,-1.002 3.211,-1.172 4.567,-0.45c1.716,0.914 1.848,1.471 1.861,7.835l0.013,6.1l4.4,0l4.4,0l0,-2.4l0,-2.4l-1.6,0l-1.6,0l0,-4.781c0,-8.948 -4.671,-12.828 -11.327,-9.409m22.527,-0.487c-8.396,2.646 -8.182,16.475 0.294,18.977c5.885,1.737 12.026,-0.931 10.337,-4.492c-0.801,-1.686 -1.2,-1.821 -3.431,-1.154c-3.199,0.955 -6.138,0.4 -7.465,-1.411c-0.823,-1.124 -0.199,-1.243 6.489,-1.243l6.576,0l-0.006,-1.7c-0.024,-6.752 -6.17,-11.065 -12.794,-8.977m-42.394,0.777c2.818,1.428 3.354,2.758 3.592,8.9l0.202,5.2l1.5,0.124l1.5,0.124l0,1.976l0,1.976l-4,0l-4,0l0,-6.031l0,-6.031l-1.169,-1.169c-1.369,-1.369 -3.304,-1.551 -5.484,-0.517c-1.933,0.917 -2.192,1.654 -2.062,5.85l0.115,3.698l1.5,0.124l1.5,0.124l0,1.976l0,1.976l-5.6,0l-5.6,0l0,-1.976l0,-1.976l1.5,-0.124l1.5,-0.124l0,-5l0,-5l-1.5,-0.124l-1.5,-0.124l0,-1.976l0,-1.976l4,0c3.289,0 4,0.107 4,0.6c0,0.747 1.163,0.778 2.211,0.058c2.354,-1.616 5.293,-1.826 7.795,-0.558m27.2,0c2.818,1.428 3.354,2.758 3.592,8.9l0.202,5.2l1.5,0.124l1.5,0.124l0,1.976l0,1.976l-4,0l-4,0l0,-6.031l0,-6.031l-1.169,-1.169c-1.369,-1.369 -3.304,-1.551 -5.484,-0.517c-1.933,0.917 -2.192,1.654 -2.062,5.85l0.115,3.698l1.5,0.124l1.5,0.124l0,1.976l0,1.976l-5.6,0l-5.6,0l0,-1.976l0,-1.976l1.5,-0.124l1.5,-0.124l0,-5l0,-5l-1.5,-0.124l-1.5,-0.124l0,-1.976l0,-1.976l4,0c3.289,0 4,0.107 4,0.6c0,0.747 1.163,0.778 2.211,0.058c2.354,-1.616 5.293,-1.826 7.795,-0.558m23.089,0.247c2.552,1.301 4.505,4.821 4.505,8.117l0,1.136l-6.576,0c-6.997,0 -7.54,0.152 -6.455,1.809c1.395,2.128 4.441,2.65 9.1,1.56c0.904,-0.212 1.165,-0.063 1.7,0.97c0.95,1.837 0.8,2.219 -1.258,3.219c-8.475,4.118 -17.227,-3.019 -14.286,-11.649c1.819,-5.339 8.12,-7.79 13.27,-5.162m-114.295,1.653l0,2.4l1.6,0l1.6,0l0,4.8l0,4.8l-1.6,0l-1.6,0l0,2.4l0,2.4l6,0l6,0l0,-2.4l0,-2.4l-1.6,0l-1.6,0l0,-3.53c0,-3.229 0.084,-3.609 0.98,-4.451c1.036,-0.974 2.22,-0.884 2.22,0.168c0,0.492 0.552,0.613 2.8,0.613l2.8,0l0,-3.6l0,-3.6l-3.181,0c-1.75,0 -3.645,0.211 -4.211,0.469c-0.788,0.359 -1.14,0.359 -1.499,0c-0.298,-0.298 -1.971,-0.469 -4.589,-0.469l-4.12,0l0,2.4m19.2,0l0,2.4l1.6,0l1.6,0l0,4.204c0,5.936 1.078,8.066 4.919,9.716c1.438,0.617 5.139,0.619 6.492,0.002c0.812,-0.37 1.22,-0.37 1.813,0c0.454,0.283 2.315,0.478 4.571,0.478l3.805,0l0,-2.4l0,-2.4l-1.6,0l-1.6,0l0,-7.2l0,-7.2l-4.4,0l-4.4,0l0,2.4l0,2.4l1.6,0l1.6,0l0,3.325c0,4.357 -1.496,6.09 -4.589,5.314c-2.312,-0.581 -2.611,-1.463 -2.611,-7.714l0,-5.725l-4.4,0l-4.4,0l0,2.4m102.4,0l0,2.4l1.6,0l1.6,0l0,4.8l0,4.8l-1.6,0l-1.6,0l0,2.4l0,2.4l6,0l6,0l0,-2.4l0,-2.4l-1.6,0l-1.6,0l0,-3.53c0,-3.229 0.084,-3.609 0.98,-4.451c1.036,-0.974 2.22,-0.884 2.22,0.168c0,0.492 0.552,0.613 2.8,0.613l2.8,0l0,-3.6l0,-3.6l-3.181,0c-1.75,0 -3.645,0.211 -4.211,0.469c-0.788,0.359 -1.14,0.359 -1.499,0c-0.298,-0.298 -1.971,-0.469 -4.589,-0.469l-4.12,0l0,2.4m-113.293,-1.533c0.356,0.356 0.838,0.356 2.027,0c0.857,-0.257 2.753,-0.467 4.212,-0.467l2.654,0l0,3.2l0,3.2l-2.353,0c-2.017,0 -2.384,-0.114 -2.563,-0.8c-0.291,-1.112 -1.703,-1.017 -2.917,0.197c-0.94,0.939 -0.99,1.211 -0.882,4.7l0.115,3.703l1.5,0.124l1.5,0.124l0,1.976l0,1.976l-5.6,0l-5.6,0l0,-1.976l0,-1.976l1.5,-0.124l1.5,-0.124l0,-5l0,-5l-1.5,-0.124l-1.5,-0.124l0,-1.976l0,-1.976l3.72,0c2.303,0 3.898,0.178 4.187,0.467m19.293,5.164l0,5.631l1.169,1.169c1.571,1.57 3.835,1.619 5.615,0.121l1.245,-1.047l-0.115,-3.653l-0.114,-3.652l-1.5,-0.124l-1.5,-0.124l0,-1.976l0,-1.976l3.991,0l3.991,0l0.109,7.1l0.109,7.1l1.5,0.124l1.5,0.124l0,1.976l0,1.976l-3.8,0c-3.111,0 -3.8,-0.109 -3.8,-0.6c0,-0.33 -0.157,-0.6 -0.35,-0.6c-0.192,0 -1.115,0.27 -2.05,0.6c-6.551,2.311 -10.388,-0.892 -10.779,-9l-0.221,-4.6l-1.5,-0.124l-1.5,-0.124l0,-1.976l0,-1.976l4,0l4,0l0,5.631m102.307,-5.164c0.356,0.356 0.838,0.356 2.027,0c0.857,-0.257 2.753,-0.467 4.212,-0.467l2.654,0l0,3.2l0,3.2l-2.353,0c-2.017,0 -2.384,-0.114 -2.563,-0.8c-0.291,-1.112 -1.703,-1.017 -2.917,0.197c-0.94,0.939 -0.99,1.211 -0.882,4.7l0.115,3.703l1.5,0.124l1.5,0.124l0,1.976l0,1.976l-5.6,0l-5.6,0l0,-1.976l0,-1.976l1.5,-0.124l1.5,-0.124l0,-5l0,-5l-1.5,-0.124l-1.5,-0.124l0,-1.976l0,-1.976l3.72,0c2.303,0 3.898,0.178 4.187,0.467m-23.207,4.162c-2.225,1.207 -1.172,1.771 3.309,1.771c3.47,0 4.276,-0.478 2.81,-1.665c-1.125,-0.911 -4.527,-0.97 -6.119,-0.106m5.8,0.328c1.187,0.901 0.818,1.043 -2.7,1.043c-1.87,0 -3.4,-0.152 -3.4,-0.339c0,-1.119 4.821,-1.675 6.1,-0.704" id="path3"/>
  <path fill-rule="evenodd" fill="#d3c7c4" d="m36.895098,8.682956c9.075,0.06 23.925,0.06 33,0c9.075,-0.06 1.65,-0.109 -16.5,-0.109c-18.15,0 -25.575,0.049 -16.5,0.109m-24.909,45.7c0,19.47 0.049,27.435 0.109,17.7c0.06,-9.735 0.06,-25.665 0,-35.4c-0.06,-9.735 -0.109,-1.77 -0.109,17.7m86.801,5.6c0,21.89 0.049,30.845 0.108,19.9c0.059,-10.945 0.059,-28.855 0,-39.8c-0.059,-10.945 -0.108,-1.99 -0.108,19.9m74.155,-38.996c-0.578,0.314 -1.175,0.892 -1.324,1.284c-0.209,0.546 -0.078,0.503 0.563,-0.183c0.986,-1.056 2.427,-1.489 3.803,-1.144c0.544,0.137 1.365,0.652 1.825,1.144c0.645,0.691 0.773,0.732 0.562,0.18c-0.625,-1.635 -3.519,-2.318 -5.429,-1.281m-1.323,4.711c0.323,0.844 2.186,1.885 3.376,1.885c1.19,0 3.053,-1.041 3.376,-1.885c0.211,-0.552 0.083,-0.511 -0.562,0.18c-0.46,0.492 -1.281,1.007 -1.825,1.144c-1.376,0.345 -2.817,-0.088 -3.803,-1.144c-0.645,-0.691 -0.773,-0.732 -0.562,-0.18m-37.724,3.772c0.605,0.091 1.595,0.091 2.2,0c0.605,-0.092 0.11,-0.167 -1.1,-0.167c-1.21,0 -1.705,0.075 -1.1,0.167m22.207,0.003c0.719,0.089 1.799,0.087 2.4,-0.004c0.601,-0.091 0.013,-0.164 -1.307,-0.162c-1.32,0.002 -1.812,0.077 -1.093,0.166m39.193,-0.008c0.495,0.096 1.305,0.096 1.8,0c0.495,-0.095 0.09,-0.173 -0.9,-0.173c-0.99,0 -1.395,0.078 -0.9,0.173m21,0.005c0.605,0.091 1.595,0.091 2.2,0c0.605,-0.092 0.11,-0.167 -1.1,-0.167c-1.21,0 -1.705,0.075 -1.1,0.167m-85.3,0.404c-1.404,0.533 -3.853,2.516 -4.518,3.658c-0.56,0.964 -0.254,0.773 1.4,-0.875c1.165,-1.161 2.748,-2.308 3.518,-2.551c0.77,-0.243 1.13,-0.445 0.8,-0.451c-0.33,-0.005 -0.87,0.094 -1.2,0.219m7.741,0.48c0.848,0.44 1.798,1.012 2.11,1.271c0.313,0.26 0.643,0.397 0.734,0.306c0.257,-0.256 -2.263,-1.835 -3.385,-2.121c-0.621,-0.159 -0.416,0.048 0.541,0.544m13.429,0.158c-1.948,1.03 -4.185,3.832 -4.531,5.675c-0.215,1.149 -0.206,1.145 0.23,-0.118c0.65,-1.878 3.226,-4.65 5.222,-5.618c0.94,-0.455 1.512,-0.837 1.272,-0.848c-0.24,-0.011 -1.227,0.398 -2.193,0.909m35.83,-0.546l-5.6,0.217l0,2.6l0,2.6l1.5,0.124l1.5,0.124l0,8.752l0,8.752l-1.5,0.124l-1.5,0.124l0,2.6l0,2.6l6.2,0l6.2,0l0,-2.6l0,-2.6l-1.5,-0.124l-1.5,-0.124l0,-1.939c0,-1.794 0.067,-1.925 0.9,-1.767c0.829,0.157 0.837,0.142 0.1,-0.188c-1.196,-0.535 -1.4,-0.22 -1.4,2.166l0,2.176l1.6,0l1.6,0l0,2.4l0,2.4l-6,0l-6,0l0,-2.4l0,-2.4l1.6,0l1.6,0l0,-9.2l0,-9.2l-1.6,0l-1.6,0l0,-2.4l0,-2.4l5.3,-0.006c2.915,-0.003 5.57,-0.181 5.9,-0.394c0.33,-0.213 0.42,-0.353 0.2,-0.311c-0.22,0.042 -2.92,0.174 -6,0.294m12,0.573c2.312,1.052 4.306,3.142 4.998,5.236c0.265,0.804 0.564,1.379 0.665,1.278c1.246,-1.246 -4.805,-7.552 -7.147,-7.447c-0.284,0.013 0.384,0.433 1.484,0.933m13.4,-0.665c-1.404,0.533 -3.853,2.516 -4.518,3.658c-0.56,0.964 -0.254,0.773 1.4,-0.875c1.165,-1.161 2.748,-2.308 3.518,-2.551c0.77,-0.243 1.13,-0.445 0.8,-0.451c-0.33,-0.005 -0.87,0.094 -1.2,0.219m7.741,0.48c0.848,0.44 1.798,1.012 2.11,1.271c0.313,0.26 0.643,0.397 0.734,0.306c0.257,-0.256 -2.263,-1.835 -3.385,-2.121c-0.621,-0.159 -0.416,0.048 0.541,0.544m-116.376,0.177c-0.116,0.301 -0.155,1.516 -0.088,2.7l0.123,2.152l1.5,0.124l1.5,0.124l0,4.352l0,4.352l-1.5,0.124l-1.5,0.124l0,2.6l0,2.6l6.2,0l6.2,0l0,-2.6l0,-2.6l-1.5,-0.124l-1.5,-0.124l0,-3.314c0,-3.859 1.798,-6.584 2.521,-3.82c0.194,0.745 0.477,0.808 3.146,0.7l2.933,-0.118l0,-3.8l0,-3.8l-3.161,-0.118c-1.738,-0.065 -3.707,0.073 -4.375,0.305c-0.819,0.286 -1.345,0.292 -1.619,0.018c-0.65,-0.65 -8.625,-0.523 -8.88,0.143m63.205,-0.013c-0.119,0.308 -0.16,1.529 -0.093,2.713l0.123,2.152l1.5,0.124l1.5,0.124l0,4.352l0,4.352l-1.5,0.124l-1.5,0.124l0,2.6l0,2.6l6.2,0l6.2,0l0,-2.6l0,-2.6l-1.491,-0.124l-1.491,-0.123l-0.109,-7.077l-0.109,-7.076l-4.507,-0.113c-3.576,-0.09 -4.553,0.003 -4.723,0.448m-54.261,0.334c0.359,0.359 0.711,0.359 1.499,0c0.566,-0.258 2.461,-0.469 4.211,-0.469l3.181,0l0,3.6l0,3.6l-2.8,0c-2.248,0 -2.8,-0.121 -2.8,-0.613c0,-1.052 -1.184,-1.142 -2.22,-0.168c-0.896,0.842 -0.98,1.222 -0.98,4.451l0,3.53l1.6,0l1.6,0l0,2.4l0,2.4l-6,0l-6,0l0,-2.4l0,-2.4l1.6,0l1.6,0l0,-4.8l0,-4.8l-1.6,0l-1.6,0l0,-2.4l0,-2.4l4.12,0c2.618,0 4.291,0.171 4.589,0.469m48.752,0.029c0.102,0.166 1.067,0.302 2.144,0.302l1.958,0l0.146,2.5l0.146,2.5l-0.028,-2.6l-0.027,-2.6l-2.263,-0.202c-1.244,-0.111 -2.179,-0.066 -2.076,0.1m14.539,6.702l0,7.2l1.6,0l1.6,0l0,2.4l0,2.4l-6,0l-6,0l0,-2.4l0,-2.4l1.6,0l1.6,0l0,-4.8l0,-4.8l-1.6,0l-1.6,0l0,-2.4l0,-2.4l4.4,0l4.4,0l0,7.2m-33.588,-2.4c0,0.33 0.175,0.87 0.388,1.2c0.345,0.533 0.388,0.533 0.388,0c0,-0.33 -0.175,-0.87 -0.388,-1.2c-0.345,-0.533 -0.388,-0.533 -0.388,0m82.4,0c0,0.33 0.175,0.87 0.388,1.2c0.345,0.533 0.388,0.533 0.388,0c0,-0.33 -0.175,-0.87 -0.388,-1.2c-0.345,-0.533 -0.388,-0.533 -0.388,0m-201.394,0.479c-0.323,0.97 -0.42,4.647 -0.118,4.46c0.165,-0.103 0.3,-1.166 0.3,-2.363l0,-2.176l1.98,0l1.98,0l0.153,2.202l0.153,2.202l-0.033,-2.302l-0.033,-2.302l-2.104,-0.121c-1.462,-0.084 -2.158,0.038 -2.278,0.4m108.32,-0.173c-0.254,0.162 0.674,0.294 2.062,0.294c1.388,0 2.44,-0.135 2.338,-0.3c-0.238,-0.385 -3.792,-0.381 -4.4,0.006m21.984,0.733l-1.122,1.039l1.154,-0.839c1.461,-1.062 3.676,-1.079 5.246,-0.039c0.922,0.611 1.801,0.78 3.8,0.733l2.6,-0.062l-2.8,-0.236c-1.691,-0.142 -3.192,-0.512 -3.789,-0.935c-1.492,-1.056 -3.744,-0.906 -5.089,0.339m38.237,-0.125c-2.393,1.609 -2.198,6.073 0.323,7.423c2.073,1.109 5.242,0.143 6.311,-1.924c2.155,-4.167 -2.668,-8.165 -6.634,-5.499m22.179,-0.608c-0.254,0.162 0.674,0.294 2.062,0.294c1.388,0 2.44,-0.135 2.338,-0.3c-0.238,-0.385 -3.792,-0.381 -4.4,0.006m-17.396,0.664c4.033,2.086 1.549,8.036 -3.044,7.291c-2.262,-0.367 -2.898,-1.229 -2.898,-3.929c0,-3.376 2.825,-4.974 5.942,-3.362m-160.58,0.384c-0.567,1.48 0.023,4.045 0.944,4.099c0.754,0.044 0.771,0.023 0.1,-0.128c-0.674,-0.151 -0.806,-0.502 -0.806,-2.142l0,-1.962l6.1,-0.122l6.1,-0.121l-6.113,-0.089c-4.9,-0.071 -6.154,0.021 -6.325,0.465m22.4,0c-0.567,1.48 0.023,4.045 0.944,4.099c0.754,0.044 0.771,0.023 0.1,-0.128c-0.674,-0.151 -0.806,-0.502 -0.806,-2.142l0,-1.962l6.1,-0.122l6.1,-0.121l-6.113,-0.089c-4.9,-0.071 -6.154,0.021 -6.325,0.465m71.839,-0.054c-0.001,0.165 1.529,0.3 3.399,0.3c1.87,0 3.4,-0.135 3.4,-0.3c0.001,-0.165 -1.529,-0.3 -3.399,-0.3c-1.87,0 -3.4,0.135 -3.4,0.3m82.4,0c-0.001,0.165 1.529,0.3 3.399,0.3c1.87,0 3.4,-0.135 3.4,-0.3c0.001,-0.165 -1.529,-0.3 -3.399,-0.3c-1.87,0 -3.4,0.135 -3.4,0.3m-89.081,3.1c0,1.21 0.075,1.705 0.167,1.1c0.091,-0.605 0.091,-1.595 0,-2.2c-0.092,-0.605 -0.167,-0.11 -0.167,1.1m19.544,-0.5l-0.064,1.7l-6.576,0c-3.617,0 -6.671,0.153 -6.787,0.339c-0.209,0.34 1.168,2.061 1.648,2.061c0.14,0 -0.168,-0.45 -0.685,-1l-0.939,-1l6.682,0c7.333,0 7.255,0.028 6.949,-2.462c-0.148,-1.207 -0.17,-1.171 -0.228,0.362m2.856,0.5c0,1.21 0.075,1.705 0.167,1.1c0.091,-0.605 0.091,-1.595 0,-2.2c-0.092,-0.605 -0.167,-0.11 -0.167,1.1m6.147,-1.733c-1.04,1.04 0.325,4.598 2.12,5.526c1.588,0.822 2.37,0.764 3.981,-0.294c0.752,-0.495 1.742,-1.121 2.2,-1.393c0.684,-0.406 0.711,-0.495 0.153,-0.5c-0.374,-0.003 -1.17,0.448 -1.769,1.004c-2.907,2.694 -7.045,0.585 -6.419,-3.272c0.224,-1.382 0.188,-1.526 -0.266,-1.071m52.653,1.733c0,1.21 0.075,1.705 0.167,1.1c0.091,-0.605 0.091,-1.595 0,-2.2c-0.092,-0.605 -0.167,-0.11 -0.167,1.1m1.2,0c0,1.21 0.075,1.705 0.167,1.1c0.091,-0.605 0.091,-1.595 0,-2.2c-0.092,-0.605 -0.167,-0.11 -0.167,1.1m19.544,-0.5l-0.064,1.7l-6.576,0c-3.617,0 -6.671,0.153 -6.787,0.339c-0.209,0.34 1.168,2.061 1.648,2.061c0.14,0 -0.168,-0.45 -0.685,-1l-0.939,-1l6.682,0c7.333,0 7.255,0.028 6.949,-2.462c-0.148,-1.207 -0.17,-1.171 -0.228,0.362m-181.164,1.587c0.605,0.091 1.595,0.091 2.2,0c0.605,-0.092 0.11,-0.167 -1.1,-0.167c-1.21,0 -1.705,0.075 -1.1,0.167m22.4,0c0.605,0.091 1.595,0.091 2.2,0c0.605,-0.092 0.11,-0.167 -1.1,-0.167c-1.21,0 -1.705,0.075 -1.1,0.167m-28.339,6.513c0,3.41 0.061,4.805 0.136,3.1c0.075,-1.705 0.075,-4.495 0,-6.2c-0.075,-1.705 -0.136,-0.31 -0.136,3.1m4.359,-4c0,1.21 0.075,1.705 0.167,1.1c0.091,-0.605 0.091,-1.595 0,-2.2c-0.092,-0.605 -0.167,-0.11 -0.167,1.1m18.041,4c0,3.41 0.061,4.805 0.136,3.1c0.075,-1.705 0.075,-4.495 0,-6.2c-0.075,-1.705 -0.136,-0.31 -0.136,3.1m4.359,-4c0,1.21 0.075,1.705 0.167,1.1c0.091,-0.605 0.091,-1.595 0,-2.2c-0.092,-0.605 -0.167,-0.11 -0.167,1.1m96.88,-1.2c0.44,0.189 1.16,0.338 1.6,0.332c0.643,-0.009 0.604,-0.075 -0.2,-0.332c-1.368,-0.438 -2.419,-0.438 -1.4,0m-15.556,0.8c0.735,2.857 3.584,5.897 6.156,6.568c0.584,0.152 0.341,-0.081 -0.585,-0.56c-2.283,-1.183 -3.784,-2.725 -4.873,-5.008c-0.525,-1.1 -0.839,-1.55 -0.698,-1m57.204,0.929c-0.441,1.155 -1.398,2.463 -2.535,3.464c-1.004,0.884 -1.711,1.607 -1.57,1.607c1.222,0 5.33,-5.38 4.959,-6.494c-0.079,-0.238 -0.464,0.402 -0.854,1.423m-65.248,-0.893c-0.775,0.369 -0.774,0.376 0.043,0.225c0.464,-0.086 1.184,0.032 1.6,0.262c0.675,0.373 0.698,0.346 0.208,-0.252c-0.617,-0.754 -0.728,-0.768 -1.851,-0.235m82.4,0c-0.775,0.369 -0.774,0.376 0.043,0.225c0.464,-0.086 1.184,0.032 1.6,0.262c0.675,0.373 0.698,0.346 0.208,-0.252c-0.617,-0.754 -0.728,-0.768 -1.851,-0.235m-88.46,0.858c0.568,0.363 3.414,0.347 4.35,-0.024c0.38,-0.151 -0.547,-0.273 -2.06,-0.272c-1.512,0.001 -2.543,0.134 -2.29,0.296m82.4,0c0.568,0.363 3.414,0.347 4.35,-0.024c0.38,-0.151 -0.547,-0.273 -2.06,-0.272c-1.512,0.001 -2.543,0.134 -2.29,0.296m-49.901,0.576c-0.512,1.598 -3.242,3.958 -5.639,4.875l-1.2,0.46l1.2,-0.227c2.36,-0.446 6.995,-4.717 6.095,-5.616c-0.122,-0.122 -0.327,0.106 -0.456,0.508m-39.578,1.268c0.678,1.228 1.808,2.255 3.339,3.037c0.33,0.168 0.022,-0.169 -0.684,-0.751c-0.706,-0.581 -1.758,-1.634 -2.339,-2.34l-1.055,-1.284l0.739,1.338m82.4,0c0.678,1.228 1.808,2.255 3.339,3.037c0.33,0.168 0.022,-0.169 -0.684,-0.751c-0.706,-0.581 -1.758,-1.634 -2.339,-2.34l-1.055,-1.284l0.739,1.338m-163.361,0.349c0.605,0.091 1.595,0.091 2.2,0c0.605,-0.092 0.11,-0.167 -1.1,-0.167c-1.21,0 -1.705,0.075 -1.1,0.167m22.4,0c0.605,0.091 1.595,0.091 2.2,0c0.605,-0.092 0.11,-0.167 -1.1,-0.167c-1.21,0 -1.705,0.075 -1.1,0.167m74.636,0.548c-0.1,0.71 -0.718,1.261 -2.336,2.082c-1.21,0.615 -1.75,0.997 -1.2,0.85c2.567,-0.688 4.607,-2.385 4.016,-3.341c-0.258,-0.417 -0.377,-0.316 -0.48,0.409m82.4,0c-0.1,0.71 -0.718,1.261 -2.336,2.082c-1.21,0.615 -1.75,0.997 -1.2,0.85c2.567,-0.688 4.607,-2.385 4.016,-3.341c-0.258,-0.417 -0.377,-0.316 -0.48,0.409m-93.936,2.765c0.33,0.213 0.87,0.388 1.2,0.388c0.533,0 0.533,-0.043 0,-0.388c-0.33,-0.213 -0.87,-0.388 -1.2,-0.388c-0.533,0 -0.533,0.043 0,0.388m67.6,0c-0.533,0.345 -0.533,0.388 0,0.388c0.33,0 0.87,-0.175 1.2,-0.388c0.533,-0.345 0.533,-0.388 0,-0.388c-0.33,0 -0.87,0.175 -1.2,0.388m14.8,0c0.33,0.213 0.87,0.388 1.2,0.388c0.533,0 0.533,-0.043 0,-0.388c-0.33,-0.213 -0.87,-0.388 -1.2,-0.388c-0.533,0 -0.533,0.043 0,0.388m-79.3,0.689c0.715,0.089 1.885,0.089 2.6,0c0.715,-0.088 0.13,-0.161 -1.3,-0.161c-1.43,0 -2.015,0.073 -1.3,0.161m21.8,-0.002c0.605,0.091 1.595,0.091 2.2,0c0.605,-0.092 0.11,-0.167 -1.1,-0.167c-1.21,0 -1.705,0.075 -1.1,0.167m38.8,0c0.605,0.091 1.595,0.091 2.2,0c0.605,-0.092 0.11,-0.167 -1.1,-0.167c-1.21,0 -1.705,0.075 -1.1,0.167m21.8,0.002c0.715,0.089 1.885,0.089 2.6,0c0.715,-0.088 0.13,-0.161 -1.3,-0.161c-1.43,0 -2.015,0.073 -1.3,0.161m-171.4,0.387c0.385,0.1 1.015,0.1 1.4,0c0.385,-0.101 0.07,-0.183 -0.7,-0.183c-0.77,0 -1.085,0.082 -0.7,0.183m22.4,0c0.385,0.1 1.015,0.1 1.4,0c0.385,-0.101 0.07,-0.183 -0.7,-0.183c-0.77,0 -1.085,0.082 -0.7,0.183m-47.6,0.411c0.605,0.091 1.595,0.091 2.2,0c0.605,-0.092 0.11,-0.167 -1.1,-0.167c-1.21,0 -1.705,0.075 -1.1,0.167m23.993,1.313c0,0.77 0.082,1.085 0.183,0.7c0.1,-0.385 0.1,-1.015 0,-1.4c-0.101,-0.385 -0.183,-0.07 -0.183,0.7m22.4,0c0,0.77 0.082,1.085 0.183,0.7c0.1,-0.385 0.1,-1.015 0,-1.4c-0.101,-0.385 -0.183,-0.07 -0.183,0.7m-29.131,2.154c-0.117,0.305 -0.156,1.34 -0.087,2.3l0.125,1.746l4.6,0l4.6,0l0,-2.2c0,-2.063 -0.062,-2.204 -1,-2.266c-0.881,-0.057 -0.893,-0.042 -0.1,0.128c0.785,0.169 0.9,0.445 0.9,2.166l0,1.972l-4.4,0l-4.4,0l0,-1.972c0,-1.727 0.112,-1.994 0.9,-2.146l0.9,-0.173l-0.913,-0.055c-0.501,-0.029 -1.008,0.195 -1.125,0.5m22.4,0c-0.117,0.305 -0.156,1.34 -0.087,2.3l0.125,1.746l4.6,0l4.6,0l0,-2.2c0,-2.063 -0.062,-2.204 -1,-2.266c-0.881,-0.057 -0.893,-0.042 -0.1,0.128c0.785,0.169 0.9,0.445 0.9,2.166l0,1.972l-4.4,0l-4.4,0l0,-1.972c0,-1.727 0.112,-1.994 0.9,-2.146l0.9,-0.173l-0.913,-0.055c-0.501,-0.029 -1.008,0.195 -1.125,0.5m-30.482,2.326c-0.264,0.264 -0.48,1.254 -0.48,2.2l0,1.72l-2,0l-2,0l0,-1.776c0,-0.977 -0.139,-1.862 -0.308,-1.967c-0.169,-0.105 -0.214,0.74 -0.1,1.876l0.208,2.067l2.2,0l2.2,0l0.128,-1.792c0.07,-0.986 0.317,-2.021 0.548,-2.3c0.535,-0.644 0.241,-0.665 -0.396,-0.028m21.878,1.64c0.177,0.175 1.563,0.264 3.082,0.196l2.76,-0.124l-3.082,-0.196c-1.695,-0.108 -2.937,-0.052 -2.76,0.124m22.4,0c0.177,0.175 1.563,0.264 3.082,0.196l2.76,-0.124l-3.082,-0.196c-1.695,-0.108 -2.937,-0.052 -2.76,0.124m91.347,8.167c0.609,0.092 1.509,0.09 2,-0.005c0.492,-0.095 -0.005,-0.171 -1.105,-0.168c-1.1,0.003 -1.503,0.081 -0.895,0.173m27.2,0c0.609,0.092 1.509,0.09 2,-0.005c0.492,-0.095 -0.005,-0.171 -1.105,-0.168c-1.1,0.003 -1.503,0.081 -0.895,0.173m21.995,0c0.605,0.091 1.595,0.091 2.2,0c0.605,-0.092 0.11,-0.167 -1.1,-0.167c-1.21,0 -1.705,0.075 -1.1,0.167m-45.209,0.662c0.6,0.266 1.658,1.016 2.351,1.667c1.002,0.941 1.17,1.006 0.815,0.32c-0.499,-0.965 -2.85,-2.554 -3.704,-2.504c-0.304,0.018 -0.062,0.251 0.538,0.517m27.2,0c0.6,0.266 1.658,1.016 2.351,1.667c1.002,0.941 1.17,1.006 0.815,0.32c-0.499,-0.965 -2.85,-2.554 -3.704,-2.504c-0.304,0.018 -0.062,0.251 0.538,0.517m15.109,-0.258c-1.404,0.533 -3.853,2.516 -4.518,3.658c-0.56,0.964 -0.254,0.773 1.4,-0.875c1.165,-1.161 2.748,-2.308 3.518,-2.551c0.77,-0.243 1.13,-0.445 0.8,-0.451c-0.33,-0.005 -0.87,0.094 -1.2,0.219m7.741,0.48c0.848,0.44 1.798,1.012 2.11,1.271c0.313,0.26 0.643,0.397 0.734,0.306c0.257,-0.256 -2.263,-1.835 -3.385,-2.121c-0.621,-0.159 -0.416,0.048 0.541,0.544m-113.976,0.177c-0.116,0.301 -0.155,1.516 -0.088,2.7l0.123,2.152l1.5,0.124l1.5,0.124l0,4.352l0,4.352l-1.5,0.124l-1.5,0.124l0,2.6l0,2.6l6.2,0l6.2,0l0,-2.6l0,-2.6l-1.5,-0.124l-1.5,-0.124l0,-3.314c0,-3.859 1.798,-6.584 2.521,-3.82c0.194,0.745 0.477,0.808 3.146,0.7l2.933,-0.118l0,-3.8l0,-3.8l-3.161,-0.118c-1.738,-0.065 -3.707,0.073 -4.375,0.305c-0.819,0.286 -1.345,0.292 -1.619,0.018c-0.65,-0.65 -8.625,-0.523 -8.88,0.143m19.205,-0.013c-0.119,0.308 -0.16,1.529 -0.093,2.713l0.123,2.152l1.486,0.123l1.487,0.124l0.129,4.076l0.129,4.077l0.085,-4.3l0.084,-4.3l-1.6,0l-1.6,0l0,-2.4l0,-2.4l4.4,0l4.4,0l0,5.725c0,6.251 0.299,7.133 2.611,7.714c3.093,0.776 4.589,-0.957 4.589,-5.314l0,-3.325l-1.6,0l-1.6,0l0,-2.4l0,-2.4l4.4,0l4.4,0l0,7.2l0,7.2l1.6,0l1.6,0l0,2.4l0,2.4l-3.805,0c-2.248,0 -4.118,-0.195 -4.568,-0.476c-0.55,-0.343 -1.02,-0.359 -1.694,-0.055c-1.132,0.509 -0.939,0.531 5.867,0.652l4.4,0.079l0,-2.6l0,-2.6l-1.491,-0.124l-1.491,-0.123l-0.109,-7.077l-0.109,-7.076l-4.6,0l-4.6,0l0,2.6l0,2.6l1.5,0.124l1.5,0.124l0,3.147c0,3.512 -0.864,4.805 -3.21,4.805c-2.583,0 -2.969,-0.903 -3.19,-7.463l-0.2,-5.937l-4.507,-0.113c-3.576,-0.09 -4.553,0.003 -4.723,0.448m28.93,-0.24c1.155,0.081 3.045,0.081 4.2,0c1.155,-0.081 0.21,-0.147 -2.1,-0.147c-2.31,0 -3.255,0.066 -2.1,0.147m27.2,0c1.155,0.081 3.045,0.081 4.2,0c1.155,-0.081 0.21,-0.147 -2.1,-0.147c-2.31,0 -3.255,0.066 -2.1,0.147m46.265,0.253c-0.116,0.301 -0.155,1.516 -0.088,2.7l0.123,2.152l1.5,0.124l1.5,0.124l0,4.352l0,4.352l-1.5,0.124l-1.5,0.124l0,2.6l0,2.6l6.2,0l6.2,0l0,-2.6l0,-2.6l-1.5,-0.124l-1.5,-0.124l0,-3.314c0,-3.859 1.798,-6.584 2.521,-3.82c0.194,0.745 0.477,0.808 3.146,0.7l2.933,-0.118l0,-3.8l0,-3.8l-3.161,-0.118c-1.738,-0.065 -3.707,0.073 -4.375,0.305c-0.819,0.286 -1.345,0.292 -1.619,0.018c-0.65,-0.65 -8.625,-0.523 -8.88,0.143m-112.656,0.321c0.359,0.359 0.711,0.359 1.499,0c0.566,-0.258 2.461,-0.469 4.211,-0.469l3.181,0l0,3.6l0,3.6l-2.8,0c-2.248,0 -2.8,-0.121 -2.8,-0.613c0,-1.052 -1.184,-1.142 -2.22,-0.168c-0.896,0.842 -0.98,1.222 -0.98,4.451l0,3.53l1.6,0l1.6,0l0,2.4l0,2.4l-6,0l-6,0l0,-2.4l0,-2.4l1.6,0l1.6,0l0,-4.8l0,-4.8l-1.6,0l-1.6,0l0,-2.4l0,-2.4l4.12,0c2.618,0 4.291,0.171 4.589,0.469m46.91,-0.089c-0.319,0.202 -0.724,0.278 -0.9,0.17c-0.175,-0.108 -0.319,-0.007 -0.319,0.226c0,0.588 0.508,0.53 1.424,-0.163c0.857,-0.649 0.712,-0.813 -0.205,-0.233m27.2,0c-0.319,0.202 -0.724,0.278 -0.9,0.17c-0.175,-0.108 -0.319,-0.007 -0.319,0.226c0,0.588 0.508,0.53 1.424,-0.163c0.857,-0.649 0.712,-0.813 -0.205,-0.233m47.49,0.089c0.359,0.359 0.711,0.359 1.499,0c0.566,-0.258 2.461,-0.469 4.211,-0.469l3.181,0l0,3.6l0,3.6l-2.8,0c-2.248,0 -2.8,-0.121 -2.8,-0.613c0,-1.052 -1.184,-1.142 -2.22,-0.168c-0.896,0.842 -0.98,1.222 -0.98,4.451l0,3.53l1.6,0l1.6,0l0,2.4l0,2.4l-6,0l-6,0l0,-2.4l0,-2.4l1.6,0l1.6,0l0,-4.8l0,-4.8l-1.6,0l-1.6,0l0,-2.4l0,-2.4l4.12,0c2.618,0 4.291,0.171 4.589,0.469m-84.989,1.931c0,1.21 0.075,1.705 0.167,1.1c0.091,-0.605 0.091,-1.595 0,-2.2c-0.092,-0.605 -0.167,-0.11 -0.167,1.1m27.2,0c0,1.21 0.075,1.705 0.167,1.1c0.091,-0.605 0.091,-1.595 0,-2.2c-0.092,-0.605 -0.167,-0.11 -0.167,1.1m45.892,2.4c0,0.33 0.175,0.87 0.388,1.2c0.345,0.533 0.388,0.533 0.388,0c0,-0.33 -0.175,-0.87 -0.388,-1.2c-0.345,-0.533 -0.388,-0.533 -0.388,0m-71.312,0.289l1.3,0.162l0,4.35l0,4.351l-1.5,0.124l-1.5,0.124l0,2.6l0,2.6l6.2,0l6.2,0l0,-2.6l0,-2.6l-1.5,-0.124l-1.5,-0.124l0,-3.567c0,-4.035 0.424,-4.65 3.491,-5.061c3.089,-0.414 3.477,0.395 3.709,7.739l0.2,6.337l4.6,0l4.6,0l0,-2.6l0,-2.6l-1.488,-0.123l-1.487,-0.124l-0.126,-4.676l-0.127,-4.677l-0.086,4.9l-0.086,4.9l1.6,0l1.6,0l0,2.4l0,2.4l-4.4,0l-4.4,0l-0.013,-6.1c-0.013,-6.364 -0.145,-6.921 -1.861,-7.835c-1.356,-0.722 -3.078,-0.552 -4.567,0.45l-1.359,0.914l-0.114,3.886l-0.115,3.885l1.615,0l1.614,0l0,2.4l0,2.4l-6,0l-6,0l0,-2.4l0,-2.4l1.6,0l1.6,0l0,-4.8l0,-4.8l-1.5,0.064c-1.477,0.063 -1.48,0.067 -0.2,0.225m27.2,0l1.3,0.162l0,4.35l0,4.351l-1.5,0.124l-1.5,0.124l0,2.6l0,2.6l6.2,0l6.2,0l0,-2.6l0,-2.6l-1.5,-0.124l-1.5,-0.124l0,-3.567c0,-4.035 0.424,-4.65 3.491,-5.061c3.089,-0.414 3.477,0.395 3.709,7.739l0.2,6.337l4.6,0l4.6,0l0,-2.6l0,-2.6l-1.488,-0.123l-1.487,-0.124l-0.126,-4.676l-0.127,-4.677l-0.086,4.9l-0.086,4.9l1.6,0l1.6,0l0,2.4l0,2.4l-4.4,0l-4.4,0l-0.013,-6.1c-0.013,-6.364 -0.145,-6.921 -1.861,-7.835c-1.356,-0.722 -3.078,-0.552 -4.567,0.45l-1.359,0.914l-0.114,3.886l-0.115,3.885l1.615,0l1.614,0l0,2.4l0,2.4l-6,0l-6,0l0,-2.4l0,-2.4l1.6,0l1.6,0l0,-4.8l0,-4.8l-1.5,0.064c-1.477,0.063 -1.48,0.067 -0.2,0.225m33.438,0.017c-0.254,0.162 0.674,0.294 2.062,0.294c1.388,0 2.44,-0.135 2.338,-0.3c-0.238,-0.385 -3.792,-0.381 -4.4,0.006m-1.337,0.994c-0.001,0.165 1.529,0.3 3.399,0.3c1.87,0 3.4,-0.135 3.4,-0.3c0.001,-0.165 -1.529,-0.3 -3.399,-0.3c-1.87,0 -3.4,0.135 -3.4,0.3m-6.681,3.1c0,1.21 0.075,1.705 0.167,1.1c0.091,-0.605 0.091,-1.595 0,-2.2c-0.092,-0.605 -0.167,-0.11 -0.167,1.1m19.544,-0.5l-0.064,1.7l-6.576,0c-3.617,0 -6.671,0.153 -6.787,0.339c-0.209,0.34 1.168,2.061 1.648,2.061c0.14,0 -0.168,-0.45 -0.685,-1l-0.939,-1l6.682,0c7.333,0 7.255,0.028 6.949,-2.462c-0.148,-1.207 -0.17,-1.171 -0.228,0.362m-4.664,3.736c-0.775,0.369 -0.774,0.376 0.043,0.225c0.464,-0.086 1.184,0.032 1.6,0.262c0.675,0.373 0.698,0.346 0.208,-0.252c-0.617,-0.754 -0.728,-0.768 -1.851,-0.235m-6.06,0.858c0.568,0.363 3.414,0.347 4.35,-0.024c0.38,-0.151 -0.547,-0.273 -2.06,-0.272c-1.512,0.001 -2.543,0.134 -2.29,0.296m-85.897,1.106c0.58,2.13 2.446,3.999 4.557,4.562c0.562,0.15 0.3,-0.096 -0.599,-0.561c-1.993,-1.032 -2.37,-1.409 -3.402,-3.402c-0.455,-0.879 -0.705,-1.149 -0.556,-0.599m78.818,0.738c0.678,1.228 1.808,2.255 3.339,3.037c0.33,0.168 0.022,-0.169 -0.684,-0.751c-0.706,-0.581 -1.758,-1.634 -2.339,-2.34l-1.055,-1.284l0.739,1.338m16.075,0.897c-0.1,0.71 -0.718,1.261 -2.336,2.082c-1.21,0.615 -1.75,0.997 -1.2,0.85c2.567,-0.688 4.607,-2.385 4.016,-3.341c-0.258,-0.417 -0.377,-0.316 -0.48,0.409m-183.666,0.265c8.619,0.06 22.839,0.06 31.6,0c8.762,-0.06 1.71,-0.109 -15.67,-0.11c-17.38,0 -24.548,0.05 -15.93,0.11m172.13,2.5c0.33,0.213 0.87,0.388 1.2,0.388c0.533,0 0.533,-0.043 0,-0.388c-0.33,-0.213 -0.87,-0.388 -1.2,-0.388c-0.533,0 -0.533,0.043 0,0.388m-76.7,0.687c0.605,0.091 1.595,0.091 2.2,0c0.605,-0.092 0.11,-0.167 -1.1,-0.167c-1.21,0 -1.705,0.075 -1.1,0.167m79.8,0.002c0.715,0.089 1.885,0.089 2.6,0c0.715,-0.088 0.13,-0.161 -1.3,-0.161c-1.43,0 -2.015,0.073 -1.3,0.161m-174.2,13.611c10.725,0.059 28.275,0.059 39,0c10.725,-0.059 1.95,-0.108 -19.5,-0.108c-21.45,0 -30.225,0.049 -19.5,0.108" id="path4"/>
 </g>
</svg>